# xmcd
#
# Track frame offsets: 
#        150
#        19468
#        38572
#        55992
#        72934
#        96718
#        117614
#        135123
#        150645
#        169424
#        190028
#        205483
#
# Disc length: 2991 seconds
#
# Revision: 0
# Processed by: cddbd v1.5.2PL0 Copyright (c) Steve Scherf et al.
# Submitted via: ExactAudioCopy v0.99pb5
#
DISCID=ae0bad0c
DTITLE=Fitzroy Xpress - Home Sweet Home
DYEAR=2004
DGENRE=Country
TTITLE0=Bushman's Life
TTITLE1=Me And My Hot Bottle of Wine
TTITLE2=Long Summer Nights
TTITLE3=Crazy Game They Call Rodeo
TTITLE4=Bunuba Girl
TTITLE5=Home Sweet Home
TTITLE6=Was It Last Night
TTITLE7=Good Old Days
TTITLE8=Better Off Alone
TTITLE9=If Only
TTITLE10=Heaven Sent
TTITLE11=Better Man
EXTD=
EXTT0=
EXTT1=
EXTT2=
EXTT3=
EXTT4=
EXTT5=
EXTT6=
EXTT7=
EXTT8=
EXTT9=
EXTT10=
EXTT11=
PLAYORDER=
